<svg width="25" height="25" viewBox="0 0 25 25" fill="none" xmlns="http://www.w3.org/2000/svg">
<rect x="4" y="4" width="16" height="16" fill="black"/>
<path d="M21.0938 1.5625H3.90625C2.6123 1.5625 1.5625 2.6123 1.5625 3.90625V21.0938C1.5625 22.3877 2.6123 23.4375 3.90625 23.4375H21.0938C22.3877 23.4375 23.4375 22.3877 23.4375 21.0938V3.90625C23.4375 2.6123 22.3877 1.5625 21.0938 1.5625ZM13.2812 15.625H10.9375V17.9688C10.9375 18.3984 10.5859 18.75 10.1562 18.75H8.59375C8.16406 18.75 7.8125 18.3984 7.8125 17.9688V7.03125C7.8125 6.60156 8.16406 6.25 8.59375 6.25H13.2812C15.8643 6.25 17.9688 8.35449 17.9688 10.9375C17.9688 13.5205 15.8643 15.625 13.2812 15.625ZM13.2812 9.375H10.9375V12.5H13.2812C14.1406 12.5 14.8438 11.7969 14.8438 10.9375C14.8438 10.0781 14.1406 9.375 13.2812 9.375Z" fill="white"/>
</svg>
